/* XPM */
static char *result[] = {
/* columns rows colors chars-per-pixel */
"64 64 10 1 ",
"  c #24100C",
". c #382217",
"X c #181C34",
"o c #222A3F",
"O c #553522",
"+ c #7C5133",
"@ c #3E4B68",
"# c #63759B",
"$ c #B4BEC9",
"% c None",
/* pixels */
"%%%%%%%%                                                    %%%%",
"%%%%%%%%                                                    %%%%",
"%%%%%%%%                                                    %%%%",
"%%%%%%%%                                                    %%%%",
"%%%     OOOO#########OOOOOOOOOOOOOOOOOOOOOOOOOO########OOOOO    ",
"%%%     OOOO#########OOOOOOOOOOOOOOOOOOOOOOOOOO########OOOOO    ",
"%%%     OOOO#########OOOOOOOOOOOOOOOOOOOOOOOOOO########OOOOO    ",
"%%%     OOOO#########OOOOOOOOOOOOOOOOOOOOOOOOOO########OOOOO    ",
"%%%     OOOO#########OOOOOOOOOOOOOOOOOOOOOOOOOO########OOOOO    ",
"%%%     ++++$$$$$$$$$++++++++++++++++++++++++++$$$$$$$$+++++    ",
"%%%     ++++$$$$$$$$$++++++++++++++++++++++++++$$$$$$$$+++++    ",
"%%%     ++++$$$$$$$$$++++++++++++++++++++++++++$$$$$$$$+++++    ",
"%%%     ++++$$$$$$$$$++++++++++++++++++++++++++$$$$$$$$+++++    ",
"%%%     ++++$$$$$$$$$++++++++++++++++++++++++++$$$$$$$$+++++    ",
"%%%     ++++$$$$$$$$$++++++++++++++++++++++++++$$$$$$$$+++++    ",
"%%%     ++++$$$$$$$$$++++++++++++++++++++++++++$$$$$$$$+++++    ",
"%%%     ++++$$$$$$$$$++++++++++++++++++++++++++$$$$$$$$+++++    ",
"%%%     ++++$$$$$$$$$++++++++++++++++++++++++++$$$$$$$$+++++    ",
"%%%     ++++$$$$$$$$$++++++++++++++++++++++++++$$$$$$$$+++++    ",
"%%%     ++++$$$$$$$$$++++++++++++++++++++++++++$$$$$$$$+++++    ",
"%%%     ++++$$$$$$$$$++++++++++++++++++++++++++$$$$$$$$+++++    ",
"%%%     ++++$$$$$$$$$++++++++++++++++++++++++++$$$$$$$$+++++    ",
"%%%     ++++$$$$$$$$$++++++++++++++++++++++++++$$$$$$$$+++++    ",
"%%%     ++++$$$$$$$$$++++++++++++++++++++++++++$$$$$$$$+++++    ",
"%%%     ++++$$$$$$$$$++++++++++++++++++++++++++$$$$$$$$+++++    ",
"%%%     ++++$$$$$$$$$++++++++++++++++++++++++++$$$$$$$$+++++    ",
"%%%     OOOO#########OOOOOOOOOOOOOOOOOOOOOOOOOO########OOOOO    ",
"%%%     OOOO#########OOOOOOOOOOOOOOOOOOOOOOOOOO########OOOOO    ",
"%%%     OOOO#########OOOOOOOOOOOOOOOOOOOOOOOOOO########OOOOO    ",
"%%%     OOOO#########OOOOOOOOOOOOOOOOOOOOOOOOOO########OOOOO    ",
"%%%     #################$$$$$$$$$$$$$$$$$##################    ",
"%%%     #################$$$$$$$$$$$$$$$$$##################    ",
"%%%     #################$$$$$$$$$$$$$$$$$##################    ",
"%%%     #################$$$$$$$$$$$$$$$$$##################    ",
"%%%     #################$$$$$$$$$$$$$$$$$##################    ",
"%%%     ....@@@@@@@@@....@@@@ooooooooo@@@@.....@@@@@@@@.....    ",
"%%%     ....@@@@@@@@@....@@@@ooooooooo@@@@.....@@@@@@@@.....    ",
"%%%     ....@@@@@@@@@....@@@@ooooooooo@@@@.....@@@@@@@@.....    ",
"%%%     ....@@@@@@@@@....@@@@ooooooooo@@@@.....@@@@@@@@.....    ",
"XXX     ....#########OOOO####ooooooooo####OOOOO########.....    ",
"XXX     ....#########OOOO####ooooooooo####OOOOO########.....    ",
"XXX     ....#########OOOO####ooooooooo####OOOOO########.....    ",
"XXX     ....#########OOOO####ooooooooo####OOOOO########.....    ",
"XXX     ....#########OOOO#################OOOOO########.....    ",
"XXX     ....#########OOOO#################OOOOO########.....    ",
"XXX     ....#########OOOO#################OOOOO########.....    ",
"XXX     ....#########OOOO#################OOOOO########.....    ",
"XXX     ....#########OOOO#################OOOOO########.....    ",
"XXX     ....#########OOOOOOOOOOOOOOOOOOOOOOOOOO########.....    ",
"XXX     ....#########OOOOOOOOOOOOOOOOOOOOOOOOOO########.....    ",
"XXX     ....#########OOOOOOOOOOOOOOOOOOOOOOOOOO########.....    ",
"XXX     ....#########OOOOOOOOOOOOOOOOOOOOOOOOOO########.....    ",
"XXXXXXXX    #########OOOOOOOOOOOOOOOOOOOOOOOOOO########     XXXX",
"XXXXXXXX    #########OOOOOOOOOOOOOOOOOOOOOOOOOO########     XXXX",
"XXXXXXXX    #########OOOOOOOOOOOOOOOOOOOOOOOOOO########     XXXX",
"XXXXXXXX    #########OOOOOOOOOOOOOOOOOOOOOOOOOO########     XXXX",
"%%%XXXXXXXXXXXXXXXXXXXXXXXXXXXXXXXXXXXXXXXXXXXXXXXXXXXXXXXXXXXXX",
"%%%XXXXXXXXXXXXXXXXXXXXXXXXXXXXXXXXXXXXXXXXXXXXXXXXXXXXXXXXXXXXX",
"%%%XXXXXXXXXXXXXXXXXXXXXXXXXXXXXXXXXXXXXXXXXXXXXXXXXXXXXXXXXXXXX",
"%%%XXXXXXXXXXXXXXXXXXXXXXXXXXXXXXXXXXXXXXXXXXXXXXXXXXXXXXXXXXXXX",
"%%%XXXXXXXXXXXXXXXXXXXXXXXXXXXXXXXXXXXXXXXXXXXXXXXXXXXXXXXXXXXXX",
"%%%%%%%%%%%%XXXXXXXXXXXXXXXXXXXXXXXXXXXXXXXXXXXXXXXXXXX%%%%%%%%%",
"%%%%%%%%%%%%XXXXXXXXXXXXXXXXXXXXXXXXXXXXXXXXXXXXXXXXXXX%%%%%%%%%",
"%%%%%%%%%%%%XXXXXXXXXXXXXXXXXXXXXXXXXXXXXXXXXXXXXXXXXXX%%%%%%%%%"
};
