/* XPM */
static char *result[] = {
/* columns rows colors chars-per-pixel */
"28 28 3 1 ",
"  c #DCB98A",
". c #E8CFA6",
"X c None",
/* pixels */
"XXXXXX                XXXXXX",
"XXX   ................   XXX",
"XX ...................... XX",
"X ........................ X",
"X ........................ X",
"X ........................ X",
" .......................... ",
" .......................... ",
" .......................... ",
" .......................... ",
" .......................... ",
" .......................... ",
" .......................... ",
" .......................... ",
" .......................... ",
" .......................... ",
" .......................... ",
" .......................... ",
" .......................... ",
" .......................... ",
" .......................... ",
" .......................... ",
"X ........................ X",
"X ........................ X",
"X ........................ X",
"XX ...................... XX",
"XXX   ................   XXX",
"XXXXXX                XXXXXX"
};
